<?xml version="1.0" standalone="no"?>
<!DOCTYPE svg PUBLIC "-//W3C//DTD SVG 20010904//EN"
 "http://www.w3.org/TR/2001/REC-SVG-20010904/DTD/svg10.dtd">
<svg version="1.0" xmlns="http://www.w3.org/2000/svg"
 width="206.000000pt" height="206.000000pt" viewBox="0 0 206.000000 206.000000"
 preserveAspectRatio="xMidYMid meet">

<g transform="translate(0.000000,206.000000) scale(0.100000,-0.100000)"
fill="#000000" stroke="none">
<path d="M876 1855 c-146 -28 -303 -107 -413 -207 -62 -57 -155 -184 -192
-261 -57 -119 -75 -207 -75 -357 0 -109 4 -150 22 -213 58 -203 180 -368 356
-481 150 -97 283 -136 457 -136 315 0 596 166 736 436 70 134 96 237 97 384 0
140 -12 210 -56 320 -102 251 -324 444 -580 505 -95 23 -259 27 -352 10z m285
-341 c185 -55 295 -193 313 -394 7 -78 -7 -113 -46 -118 -24 -3 -32 5 -65 60
-21 35 -59 84 -84 111 -40 41 -51 47 -87 47 -29 0 -56 -9 -89 -30 -59 -38 -89
-38 -144 0 -32 22 -56 30 -88 30 -40 0 -49 -5 -92 -49 -27 -28 -58 -69 -70
-93 -29 -58 -48 -78 -74 -78 -45 0 -61 54 -45 156 36 228 204 372 436 373 46
1 103 -6 135 -15z m-799 -246 c3 -7 -4 -47 -14 -88 -14 -54 -20 -114 -21 -212
-1 -97 -5 -138 -14 -138 -49 0 -56 353 -7 427 16 25 49 31 56 11z m616 -272
c14 -8 17 -96 3 -96 -12 0 -21 25 -21 57 0 36 -24 23 -30 -16 -7 -44 -24 -44
-28 2 -4 50 -30 50 -34 0 -5 -55 -28 -55 -28 1 0 32 5 48 17 54 19 11 103 10
121 -2z m70 -47 c-2 -24 -7 -44 -13 -44 -12 0 -19 69 -10 93 11 29 26 -4 23
-49z m100 45 c18 -12 22 -24 20 -52 -4 -48 -28 -55 -28 -8 0 38 -17 57 -31 35
-5 -8 -9 -26 -9 -41 0 -16 -4 -28 -10 -28 -5 0 -10 20 -10 45 0 31 5 47 18 54
23 14 24 14 50 -5z m72 -39 c0 -53 -11 -72 -24 -39 -8 21 -8 79 1 87 16 17 23
3 23 -48z m-625 -75 c19 -7 38 -7 65 1 28 9 46 8 73 0 58 -20 70 -41 75 -136
5 -90 -4 -115 -39 -115 -27 0 -39 31 -39 99 0 49 -4 62 -19 70 -30 16 -45 -13
-51 -93 l-5 -71 -30 0 c-30 0 -30 0 -35 70 -7 80 -13 95 -41 95 -24 0 -26 -6
-34 -92 -5 -55 -10 -68 -26 -73 -37 -12 -49 12 -49 92 0 88 17 128 63 148 39
17 58 18 92 5z m420 -4 c46 -20 75 -69 75 -127 0 -42 -4 -51 -40 -83 -33 -30
-48 -36 -84 -36 -111 0 -171 120 -104 206 22 27 70 53 101 54 10 0 33 -6 52
-14z m302 -12 c76 -49 74 -167 -4 -215 -27 -17 -45 -20 -86 -16 -43 4 -56 10
-79 38 -54 64 -30 171 46 205 35 16 89 10 123 -12z m254 6 c33 -18 49 -64 49
-143 0 -79 -12 -102 -47 -95 -19 3 -31 51 -32 124 -1 48 -23 64 -52 38 -14
-12 -19 -34 -21 -88 l-3 -71 -30 0 -30 0 -3 79 c-3 86 8 128 42 151 24 17 98
20 127 5z"/>
<path d="M930 790 c-25 -25 -25 -42 -2 -63 27 -24 59 -21 78 8 15 23 15 27 0
50 -20 30 -49 32 -76 5z"/>
<path d="M1204 785 c-15 -23 -15 -27 0 -50 20 -30 56 -33 79 -7 22 24 21 45
-1 65 -27 24 -59 21 -78 -8z"/>
</g>
</svg>
